<svg width="46" height="46" viewBox="0 0 46 46" fill="none" xmlns="http://www.w3.org/2000/svg">
<g filter="url(#filter0_d_39473_95)">
<path d="M20.3895 1.35421C21.6615 -0.451404 24.3385 -0.451404 25.6105 1.35421C26.4989 2.61546 28.1621 3.0611 29.5622 2.41307C31.5665 1.48534 33.8849 2.82384 34.0836 5.02353C34.2224 6.56004 35.44 7.77756 36.9765 7.91638C39.1762 8.11513 40.5147 10.4335 39.5869 12.4378C38.9389 13.8379 39.3845 15.5011 40.6458 16.3895C42.4514 17.6615 42.4514 20.3385 40.6458 21.6105C39.3845 22.4989 38.9389 24.1621 39.5869 25.5622C40.5147 27.5665 39.1762 29.8849 36.9765 30.0836C35.44 30.2224 34.2224 31.44 34.0836 32.9765C33.8849 35.1762 31.5665 36.5147 29.5622 35.5869C28.1621 34.9389 26.4989 35.3845 25.6105 36.6458C24.3385 38.4514 21.6615 38.4514 20.3895 36.6458C19.5011 35.3845 17.8379 34.9389 16.4378 35.5869C14.4335 36.5147 12.1151 35.1762 11.9164 32.9765C11.7776 31.44 10.56 30.2224 9.02353 30.0836C6.82384 29.8849 5.48534 27.5665 6.41307 25.5622C7.0611 24.1621 6.61546 22.4989 5.35421 21.6105C3.5486 20.3385 3.5486 17.6615 5.35421 16.3895C6.61546 15.5011 7.0611 13.8379 6.41307 12.4378C5.48534 10.4335 6.82384 8.11513 9.02353 7.91638C10.56 7.77756 11.7776 6.56004 11.9164 5.02353C12.1151 2.82384 14.4335 1.48534 16.4378 2.41307C17.8379 3.0611 19.5011 2.61546 20.3895 1.35421Z" fill="#3DDC84"/>
</g>
<defs>
<filter id="filter0_d_39473_95" x="0" y="0" width="46" height="46" filterUnits="userSpaceOnUse" color-interpolation-filters="sRGB">
<feFlood flood-opacity="0" result="BackgroundImageFix"/>
<feColorMatrix in="SourceAlpha" type="matrix" values="0 0 0 0 0 0 0 0 0 0 0 0 0 0 0 0 0 0 127 0" result="hardAlpha"/>
<feOffset dy="4"/>
<feGaussianBlur stdDeviation="2"/>
<feComposite in2="hardAlpha" operator="out"/>
<feColorMatrix type="matrix" values="0 0 0 0 0 0 0 0 0 0 0 0 0 0 0 0 0 0 0.25 0"/>
<feBlend mode="normal" in2="BackgroundImageFix" result="effect1_dropShadow_39473_95"/>
<feBlend mode="normal" in="SourceGraphic" in2="effect1_dropShadow_39473_95" result="shape"/>
</filter>
</defs>
</svg>
